<svg width="410" height="357" viewBox="0 0 410 357" fill="none" xmlns="http://www.w3.org/2000/svg">
<path d="M247 179C247 202.196 228.196 221 205 221C181.804 221 163 202.196 163 179C163 155.804 181.804 137 205 137C228.196 137 247 155.804 247 179ZM177.7 179C177.7 194.077 189.923 206.3 205 206.3C220.077 206.3 232.3 194.077 232.3 179C232.3 163.923 220.077 151.7 205 151.7C189.923 151.7 177.7 163.923 177.7 179Z" fill="#F6DB3F"/>
<path d="M229.501 203.501C232.372 206.372 232.4 211.089 229.074 213.416C224.329 216.735 218.925 219.053 213.194 220.193C205.047 221.814 196.602 220.982 188.927 217.803C181.253 214.624 174.693 209.241 170.078 202.334C165.463 195.427 163 187.307 163 179C163 170.693 165.463 162.573 170.078 155.666C174.693 148.759 181.253 143.376 188.927 140.197C196.602 137.018 205.047 136.186 213.194 137.807C218.925 138.947 224.329 141.265 229.074 144.584C232.4 146.911 232.372 151.628 229.501 154.499C226.631 157.369 222.004 157.26 218.474 155.257C215.951 153.825 213.202 152.797 210.326 152.225C205.03 151.171 199.541 151.712 194.553 153.778C189.564 155.844 185.301 159.343 182.301 163.833C179.301 168.322 177.7 173.601 177.7 179C177.7 184.399 179.301 189.678 182.301 194.167C185.301 198.657 189.564 202.156 194.553 204.222C199.541 206.288 205.03 206.829 210.326 205.775C213.202 205.203 215.951 204.175 218.474 202.743C222.004 200.74 226.631 200.631 229.501 203.501Z" fill="#03AE66"/>
<circle cx="205" cy="178.999" r="9.33333" fill="#FF584C"/>
<rect x="157" y="19" width="96" height="96" rx="24" fill="url(#paint0_linear_638_1030)"/>
<rect x="157" y="243" width="96" height="96" rx="24" fill="url(#paint1_linear_638_1030)"/>
<rect x="269" y="131" width="96" height="96" rx="24" fill="url(#paint2_linear_638_1030)"/>
<rect x="45" y="131" width="96" height="96" rx="24" fill="url(#paint3_linear_638_1030)"/>
<mask id="mask0_638_1030" style="mask-type:alpha" maskUnits="userSpaceOnUse" x="269" y="243" width="96" height="96">
<rect x="269" y="243" width="96" height="96" fill="url(#paint4_linear_638_1030)"/>
</mask>
<g mask="url(#mask0_638_1030)">
<path d="M315.8 315C309.4 314.667 304 312.2 299.6 307.6C295.2 303 293 297.467 293 291C293 284.333 295.333 278.667 300 274C304.667 269.333 310.333 267 317 267C323.467 267 329 269.2 333.6 273.6C338.2 278 340.667 283.4 341 289.8L332.6 287.3C331.733 283.7 329.867 280.75 327 278.45C324.133 276.15 320.8 275 317 275C312.6 275 308.833 276.567 305.7 279.7C302.567 282.833 301 286.6 301 291C301 294.8 302.15 298.133 304.45 301C306.75 303.867 309.7 305.733 313.3 306.6L315.8 315ZM320.6 330.8C320 330.933 319.4 331 318.8 331H317C311.467 331 306.267 329.95 301.4 327.85C296.533 325.75 292.3 322.9 288.7 319.3C285.1 315.7 282.25 311.467 280.15 306.6C278.05 301.733 277 296.533 277 291C277 285.467 278.05 280.267 280.15 275.4C282.25 270.533 285.1 266.3 288.7 262.7C292.3 259.1 296.533 256.25 301.4 254.15C306.267 252.05 311.467 251 317 251C322.533 251 327.733 252.05 332.6 254.15C337.467 256.25 341.7 259.1 345.3 262.7C348.9 266.3 351.75 270.533 353.85 275.4C355.95 280.267 357 285.467 357 291V292.8C357 293.4 356.933 294 356.8 294.6L349 292.2V291C349 282.067 345.9 274.5 339.7 268.3C333.5 262.1 325.933 259 317 259C308.067 259 300.5 262.1 294.3 268.3C288.1 274.5 285 282.067 285 291C285 299.933 288.1 307.5 294.3 313.7C300.5 319.9 308.067 323 317 323H318.2L320.6 330.8ZM351.1 333L334 315.9L329 331L317 291L357 303L341.9 308L359 325.1L351.1 333Z" fill="url(#paint5_linear_638_1030)"/>
</g>
<mask id="mask1_638_1030" style="mask-type:alpha" maskUnits="userSpaceOnUse" x="269" y="19" width="96" height="96">
<rect x="269" y="19" width="96" height="96" fill="url(#paint6_linear_638_1030)"/>
</mask>
<g mask="url(#mask1_638_1030)">
<path d="M335 58.001C333.333 58.001 331.917 57.4176 330.75 56.251C329.583 55.0843 329 53.6676 329 52.001C329 50.3343 329.583 48.9176 330.75 47.751C331.917 46.5843 333.333 46.001 335 46.001C336.667 46.001 338.083 46.5843 339.25 47.751C340.417 48.9176 341 50.3343 341 52.001C341 53.6676 340.417 55.0843 339.25 56.251C338.083 57.4176 336.667 58.001 335 58.001ZM299 58.001C297.333 58.001 295.917 57.4176 294.75 56.251C293.583 55.0843 293 53.6676 293 52.001C293 50.3343 293.583 48.9176 294.75 47.751C295.917 46.5843 297.333 46.001 299 46.001C300.667 46.001 302.083 46.5843 303.25 47.751C304.417 48.9176 305 50.3343 305 52.001C305 53.6676 304.417 55.0843 303.25 56.251C302.083 57.4176 300.667 58.001 299 58.001ZM317 69.001C315.333 69.001 313.917 68.4176 312.75 67.251C311.583 66.0843 311 64.6676 311 63.001C311 61.3343 311.583 59.9176 312.75 58.751C313.917 57.5843 315.333 57.001 317 57.001C318.667 57.001 320.083 57.5843 321.25 58.751C322.417 59.9176 323 61.3343 323 63.001C323 64.6676 322.417 66.0843 321.25 67.251C320.083 68.4176 318.667 69.001 317 69.001ZM317 47.001C315.333 47.001 313.917 46.4176 312.75 45.251C311.583 44.0843 311 42.6676 311 41.001C311 39.3343 311.583 37.9176 312.75 36.751C313.917 35.5843 315.333 35.001 317 35.001C318.667 35.001 320.083 35.5843 321.25 36.751C322.417 37.9176 323 39.3343 323 41.001C323 42.6676 322.417 44.0843 321.25 45.251C320.083 46.4176 318.667 47.001 317 47.001ZM317 99.001C315.667 99.001 314.317 98.901 312.95 98.701C311.583 98.501 310.267 98.2343 309 97.901V83.601C309 81.2676 309.783 79.251 311.35 77.551C312.917 75.851 314.8 75.001 317 75.001C319.2 75.001 321.083 75.851 322.65 77.551C324.217 79.251 325 81.2676 325 83.601V97.901C323.733 98.2343 322.417 98.501 321.05 98.701C319.683 98.901 318.333 99.001 317 99.001ZM303 95.801C301.667 95.2676 300.383 94.6676 299.15 94.001C297.917 93.3343 296.733 92.601 295.6 91.801C293.733 90.4676 292.25 88.7343 291.15 86.601C290.05 84.4676 289.5 82.201 289.5 79.801C289.5 78.0676 289.317 76.451 288.95 74.951C288.583 73.451 287.933 72.0343 287 70.701C286.333 69.8343 285.083 68.5176 283.25 66.751C281.417 64.9843 279.733 63.3343 278.2 61.801C277.467 61.0676 277.1 60.1343 277.1 59.001C277.1 57.8676 277.467 56.9343 278.2 56.201C278.933 55.4676 279.867 55.101 281 55.101C282.133 55.101 283.067 55.4676 283.8 56.201L299.1 70.701C300.433 71.901 301.417 73.3176 302.05 74.951C302.683 76.5843 303 78.2676 303 80.001V95.801ZM331 95.801V80.001C331 78.2676 331.333 76.5676 332 74.901C332.667 73.2343 333.633 71.8343 334.9 70.701L350.2 56.201C351 55.4676 351.95 55.101 353.05 55.101C354.15 55.101 355.067 55.4676 355.8 56.201C356.533 56.9343 356.9 57.8676 356.9 59.001C356.9 60.1343 356.533 61.0676 355.8 61.801C354.267 63.3343 352.583 64.9676 350.75 66.701C348.917 68.4343 347.667 69.7676 347 70.701C346.067 72.0343 345.417 73.451 345.05 74.951C344.683 76.451 344.5 78.0676 344.5 79.801C344.5 82.201 343.95 84.4843 342.85 86.651C341.75 88.8176 340.233 90.5676 338.3 91.901C337.233 92.6343 336.083 93.3343 334.85 94.001C333.617 94.6676 332.333 95.2676 331 95.801Z" fill="url(#paint7_linear_638_1030)"/>
</g>
<mask id="mask2_638_1030" style="mask-type:alpha" maskUnits="userSpaceOnUse" x="45" y="19" width="96" height="96">
<rect x="45" y="19" width="96" height="96" fill="url(#paint8_linear_638_1030)"/>
</mask>
<g mask="url(#mask2_638_1030)">
<path d="M81.8 114.6L74.8 110.6L86.8 89.8L80 85.8L74 96.2L67 92.2L87.6 56.6C85.0667 54 83.1667 51.0333 81.9 47.7C80.6333 44.3667 80 40.9333 80 37.4C80 35 80.3 32.6167 80.9 30.25C81.5 27.8833 82.4667 25.6 83.8 23.4L90.6 27.4C89.6667 28.9333 89 30.5167 88.6 32.15C88.2 33.7833 88 35.4667 88 37.2C88 40.7333 88.8667 44.05 90.6 47.15C92.3333 50.25 94.8 52.7333 98 54.6L107 59.8C111.133 62.2 114.167 65.65 116.1 70.15C118.033 74.65 119 78.8667 119 82.8C119 85.3333 118.667 87.8 118 90.2C117.333 92.6 116.4 94.8667 115.2 97L108.2 93C109.133 91.4 109.8 89.7667 110.2 88.1C110.6 86.4333 110.8 84.7333 110.8 83C110.8 80.8667 110.5 78.8 109.9 76.8C109.3 74.8 108.333 72.9333 107 71.2L81.8 114.6ZM109 55C106.8 55 104.917 54.2167 103.35 52.65C101.783 51.0833 101 49.2 101 47C101 44.8 101.783 42.9167 103.35 41.35C104.917 39.7833 106.8 39 109 39C111.2 39 113.083 39.7833 114.65 41.35C116.217 42.9167 117 44.8 117 47C117 49.2 116.217 51.0833 114.65 52.65C113.083 54.2167 111.2 55 109 55ZM99 35C97.2667 35 95.8333 34.4 94.7 33.2C93.5667 32 93 30.6 93 29C93 27.2667 93.6 25.8333 94.8 24.7C96 23.5667 97.4 23 99 23C100.733 23 102.167 23.6 103.3 24.8C104.433 26 105 27.4 105 29C105 30.7333 104.4 32.1667 103.2 33.3C102 34.4333 100.6 35 99 35Z" fill="url(#paint9_linear_638_1030)"/>
</g>
<mask id="mask3_638_1030" style="mask-type:alpha" maskUnits="userSpaceOnUse" x="45" y="243" width="96" height="96">
<rect x="45" y="243" width="96" height="96" fill="url(#paint10_linear_638_1030)"/>
</mask>
<g mask="url(#mask3_638_1030)">
<path d="M93 299L85 291L93 283L101 291L93 299ZM84.5 275.5L74.5 265.5L93 247L111.5 265.5L101.5 275.5L93 267L84.5 275.5ZM67.5 309.5L49 291L67.5 272.5L77.5 282.5L69 291L77.5 299.5L67.5 309.5ZM118.5 309.5L108.5 299.5L117 291L108.5 282.5L118.5 272.5L137 291L118.5 309.5ZM93 335L74.5 316.5L84.5 306.5L93 315L101.5 306.5L111.5 316.5L93 335Z" fill="url(#paint11_linear_638_1030)"/>
</g>
<g opacity="0.75">
<rect width="410" height="357" fill="url(#paint12_radial_638_1030)"/>
</g>
<defs>
<linearGradient id="paint0_linear_638_1030" x1="205" y1="115" x2="205" y2="19" gradientUnits="userSpaceOnUse">
<stop stop-color="#FF584C"/>
<stop offset="1" stop-color="#99352E"/>
</linearGradient>
<linearGradient id="paint1_linear_638_1030" x1="205" y1="243" x2="205" y2="339" gradientUnits="userSpaceOnUse">
<stop stop-color="#0075BF"/>
<stop offset="1" stop-color="#003759"/>
</linearGradient>
<linearGradient id="paint2_linear_638_1030" x1="269" y1="179" x2="365" y2="179" gradientUnits="userSpaceOnUse">
<stop stop-color="#F6DB3F"/>
<stop offset="1" stop-color="#908025"/>
</linearGradient>
<linearGradient id="paint3_linear_638_1030" x1="141" y1="179" x2="45" y2="179" gradientUnits="userSpaceOnUse">
<stop stop-color="#03AE66"/>
<stop offset="1" stop-color="#01482A"/>
</linearGradient>
<linearGradient id="paint4_linear_638_1030" x1="286.5" y1="264" x2="358" y2="333" gradientUnits="userSpaceOnUse">
<stop stop-color="#6D6D6D"/>
<stop offset="1" stop-color="#343434"/>
</linearGradient>
<linearGradient id="paint5_linear_638_1030" x1="291.948" y1="268.937" x2="353.021" y2="327.875" gradientUnits="userSpaceOnUse">
<stop stop-color="#6D6D6D"/>
<stop offset="1" stop-color="#343434"/>
</linearGradient>
<linearGradient id="paint6_linear_638_1030" x1="287.75" y1="110.25" x2="356.75" y2="38.75" gradientUnits="userSpaceOnUse">
<stop stop-color="#6D6D6D"/>
<stop offset="1" stop-color="#343434"/>
</linearGradient>
<linearGradient id="paint7_linear_638_1030" x1="292.686" y1="95.8343" x2="337.244" y2="38.2626" gradientUnits="userSpaceOnUse">
<stop stop-color="#6D6D6D"/>
<stop offset="1" stop-color="#343434"/>
</linearGradient>
<linearGradient id="paint8_linear_638_1030" x1="134" y1="109" x2="62.5" y2="40" gradientUnits="userSpaceOnUse">
<stop stop-color="#6D6D6D"/>
<stop offset="1" stop-color="#343434"/>
</linearGradient>
<linearGradient id="paint9_linear_638_1030" x1="115.208" y1="108.875" x2="57.6774" y2="77.3575" gradientUnits="userSpaceOnUse">
<stop stop-color="#6D6D6D"/>
<stop offset="1" stop-color="#343434"/>
</linearGradient>
<linearGradient id="paint10_linear_638_1030" x1="132.75" y1="262.75" x2="63.75" y2="334.25" gradientUnits="userSpaceOnUse">
<stop stop-color="#6D6D6D"/>
<stop offset="1" stop-color="#343434"/>
</linearGradient>
<linearGradient id="paint11_linear_638_1030" x1="129.437" y1="265.104" x2="66.1875" y2="330.646" gradientUnits="userSpaceOnUse">
<stop stop-color="#6D6D6D"/>
<stop offset="1" stop-color="#343434"/>
</linearGradient>
<radialGradient id="paint12_radial_638_1030" cx="0" cy="0" r="1" gradientUnits="userSpaceOnUse" gradientTransform="translate(205 178.5) rotate(90) scale(178.5 205)">
<stop stop-opacity="0.25"/>
<stop offset="0.852577" stop-opacity="0.75"/>
</radialGradient>
</defs>
</svg>
