<svg width="128" height="199" viewBox="0 0 128 199" fill="none" xmlns="http://www.w3.org/2000/svg">
<mask id="mask0_800_154" style="mask-type:alpha" maskUnits="userSpaceOnUse" x="0" y="0" width="128" height="198">
<path d="M11.9203 100.924C10.3902 72.9051 8.69284 77.7343 11.9203 59.2064C15.1477 40.6785 26.2644 39.005 29.3723 40.3199C32.4802 41.6348 42.7602 42.8302 50.8886 41.6348C59.0169 40.4395 65.3523 34.2237 79.5769 32.7892C93.8015 31.3548 97.9852 35.5385 102.169 44.2646C106.227 52.7295 103.287 58.8705 105.875 67.8129C108.282 76.1327 114.481 72.1161 114.481 88.2533V104.869C114.481 104.869 114.969 95.8887 117.708 91.9589C120.486 87.9744 125.761 86.9901 126.554 81.4398C127.63 73.9092 127.749 67.8129 127.391 63.151C126.554 52.2734 125.173 46.016 119.741 36.6144C114.555 27.6399 110.312 22.4645 101.093 17.7279C96.1292 15.1776 87.4662 13.4246 87.4662 13.4246C87.4662 13.4246 84.7026 13.0202 82.9239 12.827C74.4312 11.9044 69.5243 11.7562 61.049 12.827C58.5144 13.1472 54.5941 13.8897 54.5941 13.8897C54.5941 13.8897 43.1435 14.8677 38.457 17.1302C28.0575 22.1507 24.7588 23.6653 18.9728 30.9962C13.4245 38.0261 11.6201 42.9293 9.171 51.4366C6.88042 59.3933 6.7605 64.4193 6.54123 72.4747C6.22858 83.961 11.9203 100.924 11.9203 100.924Z" fill="#180505"/>
<path d="M61.049 12.827C69.5243 11.7562 74.4312 11.9044 82.9239 12.827C84.7026 13.0202 87.4662 13.4246 87.4662 13.4246C87.4662 13.4246 85.7227 8.29857 83.402 5.89395C80.4152 2.79918 77.3809 1.89975 73.4806 1.11257C67.9801 0.00238687 63.8736 2.14858 59.7341 5.29628C56.2428 7.95114 54.5941 13.8897 54.5941 13.8897C54.5941 13.8897 58.5144 13.1472 61.049 12.827Z" fill="#180505"/>
<path d="M114.481 88.2533C114.481 72.1161 108.282 76.1327 105.875 67.8129C103.287 58.8705 106.227 52.7295 102.169 44.2646C97.9852 35.5385 93.8015 31.3548 79.5769 32.7892C65.3523 34.2237 59.0169 40.4395 50.8886 41.6348C42.7602 42.8302 32.4802 41.6348 29.3723 40.3199C26.2644 39.005 15.1477 40.6785 11.9203 59.2064C8.69284 77.7343 10.3902 72.9051 11.9203 100.924C11.9203 100.924 6.22858 83.961 6.54123 72.4747C6.7605 64.4193 6.88042 59.3933 9.171 51.4366C11.6201 42.9293 13.4245 38.0261 18.9728 30.9962C24.7588 23.6653 28.0575 22.1507 38.457 17.1302C43.1435 14.8677 54.5941 13.8897 54.5941 13.8897M114.481 88.2533C114.481 104.39 114.481 104.869 114.481 104.869M114.481 88.2533V104.869M114.481 104.869C114.481 104.869 114.969 95.8887 117.708 91.9589C120.486 87.9744 125.761 86.9901 126.554 81.4398C127.63 73.9092 127.749 67.8129 127.391 63.151C126.554 52.2734 125.173 46.016 119.741 36.6144C114.555 27.6399 110.312 22.4645 101.093 17.7279C96.1292 15.1776 87.4662 13.4246 87.4662 13.4246M54.5941 13.8897C54.5941 13.8897 58.5144 13.1472 61.049 12.827C69.5243 11.7562 74.4312 11.9044 82.9239 12.827C84.7026 13.0202 87.4662 13.4246 87.4662 13.4246M54.5941 13.8897C54.5941 13.8897 56.2428 7.95114 59.7341 5.29628C63.8736 2.14858 67.9801 0.00238688 73.4806 1.11257C77.3809 1.89975 80.4152 2.79918 83.402 5.89395C85.7227 8.29857 87.4662 13.4246 87.4662 13.4246" stroke="black" stroke-width="0.239069"/>
<path d="M25.3081 170.852C25.3081 170.852 26.0253 177.546 26.7425 179.697C27.141 180.893 27.4597 182.186 28.8941 183.881C31.6328 187.116 34.7478 188.821 38.5764 190.097C48.6173 193.444 55.9106 193.664 64.9936 191.89C72.7541 190.374 75.1752 189.118 80.8917 185.913C88.781 181.49 93.0124 175.661 96.7898 169.895C101.332 162.962 103.092 156.898 105.635 148.738C110.043 134.598 112.927 118.376 112.927 118.376C112.927 118.376 113.291 152.702 98.4633 175.514C93.8014 182.686 92.2475 185.058 85.3145 189.738C80.5331 192.966 78.7401 194.639 69.6555 196.671C63.4172 198.067 59.9078 198.058 53.5183 197.867C48.424 197.714 44.4336 197.388 40.2499 196.073C37.1689 195.105 37.0225 195.237 33.4365 193.085C31.0767 191.669 28.1003 189.022 26.2644 183.881C25.6667 182.207 25.3081 180.654 25.3081 178.502C25.3081 175.394 25.3081 170.852 25.3081 170.852Z" fill="black"/>
<path d="M7.97573 121.484C6.78038 120.767 4.93388 116.359 3.67248 112.997C2.15318 108.948 1.52086 105.705 1.999 102.478C2.254 100.757 10.3171 99.9762 16.9408 99.4897C24.9484 98.9015 38.7282 98.7113 39.5329 100.924C40.011 102.239 39.7293 106.542 39.1743 109.77C38.47 113.865 37.5008 119.811 34.7515 121.245C32.7717 122.278 25.2224 122.918 19.6901 122.918C14.1915 122.918 9.17108 122.201 7.97573 121.484Z" stroke="black" stroke-width="2.39069"/>
<path d="M51.7253 111.562C49.5365 107.193 47.9001 101.64 47.9001 100.086C47.9001 98.6518 62.3324 97.5478 71.8071 97.0979C79.1744 96.748 87.9646 97.0979 89.2591 97.0979C90.4545 97.0979 92.8452 97.6955 93.0842 99.1299C93.5166 101.724 93.0843 105.346 92.7257 110.127C92.4901 113.268 91.7694 116.462 91.0522 117.658L91.0371 117.683C90.3315 118.859 90.0825 119.274 88.1833 119.929C84.7168 121.124 79.3179 121.279 73.122 121.363C67.3188 121.443 59.0169 121.244 57.5825 120.527C56.2757 119.873 53.5985 115.301 51.7253 111.562Z" stroke="black" stroke-width="2.39069"/>
</mask>
<g mask="url(#mask0_800_154)">
<rect width="127.185" height="197.232" transform="translate(0.407715 0.816406)" fill="black" fill-opacity="0.8"/>
</g>
</svg>
