<svg width="64" height="64" viewBox="0 0 64 64" fill="none" xmlns="http://www.w3.org/2000/svg">
<path fill-rule="evenodd" clip-rule="evenodd" d="M0.666748 18.6673C0.666748 14.6172 3.95 11.334 8.00008 11.334H42.6667C46.7169 11.334 50.0001 14.6172 50.0001 18.6673V24.3437C49.679 24.5586 49.3742 24.8078 49.0907 25.0913L41.0907 33.0913C38.7475 35.4345 38.7475 39.2334 41.0907 41.5766L48.8275 49.3134C47.5211 51.3316 45.2499 52.6673 42.6667 52.6673H8.00008C3.95 52.6673 0.666748 49.3841 0.666748 45.334V18.6673ZM43.9193 35.9198L50.0001 29.8388V44.8292L47.3334 42.1625L43.9193 38.7481C43.1382 37.9671 43.1382 36.7009 43.9193 35.9198ZM14.4427 22.3365C13.5237 21.7239 12.2819 21.9722 11.6692 22.8912C11.0565 23.8103 11.3049 25.052 12.2239 25.6648L24.2239 33.6646C24.8957 34.1126 25.7709 34.1126 26.4427 33.6646L38.4427 25.6648C39.3617 25.052 39.6102 23.8103 38.9974 22.8912C38.3846 21.9722 37.143 21.7239 36.2238 22.3365L25.3333 29.5969L14.4427 22.3365Z" fill="#FFFFFF"/>
<path fill-rule="evenodd" clip-rule="evenodd" d="M54.7473 27.9198C55.5284 28.7009 55.5284 29.967 54.7473 30.7481L50.1617 35.3339H61.3332C62.4377 35.3339 63.3332 36.2294 63.3332 37.3339C63.3332 38.4385 62.4377 39.3339 61.3332 39.3339H50.1617L54.7473 43.9198C55.5284 44.7009 55.5284 45.967 54.7473 46.7481C53.9663 47.5291 52.7001 47.5291 51.9191 46.7481L43.9191 38.7481C43.138 37.967 43.138 36.7009 43.9191 35.9198L51.9191 27.9198C52.7001 27.1387 53.9663 27.1387 54.7473 27.9198Z" fill="#FFFFFF"/>
</svg>
