<svg width="64" height="64" viewBox="0 0 64 64" fill="none" xmlns="http://www.w3.org/2000/svg">
<path d="M33.45 10.3004L49.85 20.1004C50.7833 20.6337 51.425 21.2921 51.775 22.0754C52.125 22.8587 52.3 23.7004 52.3 24.6004V46.9004C52.3 48.2004 51.8333 49.3087 50.9 50.2254C49.9667 51.1421 48.85 51.6004 47.55 51.6004H14.45C13.15 51.6004 12.0417 51.1421 11.125 50.2254C10.2083 49.3087 9.75 48.2004 9.75 46.9004V24.6004C9.75 23.7004 9.91667 22.8587 10.25 22.0754C10.5833 21.2921 11.2167 20.6337 12.15 20.1004L28.55 10.3004C29.3167 9.86706 30.1333 9.65039 31 9.65039C31.8667 9.65039 32.6833 9.86706 33.45 10.3004ZM31 33.2004L47 23.8004L31 14.1504L15 23.8004L31 33.2004Z" fill="#FFFFFF"/>
</svg>
