<svg width="20" height="20" viewBox="0 0 20 20" fill="none" xmlns="http://www.w3.org/2000/svg">
<path d="M14.1667 5.83333C15.0872 5.83333 15.8333 5.08714 15.8333 4.16667C15.8333 3.24619 15.0872 2.5 14.1667 2.5C13.2462 2.5 12.5 3.24619 12.5 4.16667C12.5 5.08714 13.2462 5.83333 14.1667 5.83333Z" stroke="#DFDFDF" stroke-width="1.25" stroke-linecap="round" stroke-linejoin="round"/>
<path d="M5.83341 5.83333C6.75389 5.83333 7.50008 5.08714 7.50008 4.16667C7.50008 3.24619 6.75389 2.5 5.83341 2.5C4.91294 2.5 4.16675 3.24619 4.16675 4.16667C4.16675 5.08714 4.91294 5.83333 5.83341 5.83333Z" stroke="#DFDFDF" stroke-width="1.25" stroke-linecap="round" stroke-linejoin="round"/>
<path d="M5.83341 17.4993C6.75389 17.4993 7.50008 16.7532 7.50008 15.8327C7.50008 14.9122 6.75389 14.166 5.83341 14.166C4.91294 14.166 4.16675 14.9122 4.16675 15.8327C4.16675 16.7532 4.91294 17.4993 5.83341 17.4993Z" stroke="#DFDFDF" stroke-width="1.25" stroke-linecap="round" stroke-linejoin="round"/>
<path d="M5.83325 5.83398V14.1673" stroke="#DFDFDF" stroke-width="1.25" stroke-linecap="round" stroke-linejoin="round"/>
<path d="M14.1666 5.83398V6.66732C14.1666 8.75065 12.4999 9.16732 12.4999 9.16732L7.49992 10.834C7.49992 10.834 5.83325 11.2507 5.83325 13.334V14.1673" stroke="#DFDFDF" stroke-width="1.25" stroke-linecap="round" stroke-linejoin="round"/>
</svg>
