<svg width="64" height="64" viewBox="0 0 64 64" fill="none" xmlns="http://www.w3.org/2000/svg">
<path d="M28.8799 10.792C23.9925 11.3305 19.4274 13.4944 15.9165 16.9368C12.4054 20.3792 10.1519 24.9006 9.51701 29.7765C8.88217 34.6524 9.90277 39.6002 12.4152 43.8269C14.9277 48.0536 18.7865 51.3142 23.3731 53.0862C23.5366 53.1405 23.7111 53.1521 23.8803 53.1201C24.0495 53.088 24.2078 53.0133 24.3401 52.9032C24.4723 52.7929 24.5743 52.6508 24.6365 52.4901C24.6985 52.3294 24.7186 52.1557 24.6947 51.985V48.4604C24.0439 48.6064 23.379 48.6802 22.7119 48.6806C21.5658 48.6584 20.4663 48.2225 19.6162 47.4533C18.7661 46.6842 18.2226 45.6337 18.0859 44.4954C17.8651 43.6498 17.4065 42.8853 16.7643 42.2924C16.1031 42.072 15.8835 42.072 15.8835 41.8516C15.8835 41.4108 16.5447 41.4108 16.7643 41.4108C18.0859 41.4108 19.1879 42.9528 19.6279 43.614C20.7291 45.3764 22.0515 45.817 22.7119 45.817C23.3982 45.8269 24.0772 45.676 24.6947 45.3764C24.764 44.5981 24.9959 43.843 25.3755 43.1601C25.755 42.477 26.2737 41.8814 26.8979 41.4116C21.8311 40.3102 18.0867 37.4466 18.0867 32.6004C18.1615 30.1548 19.0977 27.8142 20.7299 25.9916C20.3866 25.0013 20.2369 23.9544 20.2891 22.9076C20.219 21.932 20.3697 20.9532 20.7299 20.044C20.7401 19.8718 20.8129 19.7096 20.9347 19.5877C21.0566 19.4657 21.219 19.3929 21.3911 19.3828H21.6115C23.6161 19.7994 25.4545 20.795 26.8986 22.2464C28.3232 21.7956 29.8101 21.5725 31.3042 21.5852C32.7985 21.5725 34.2852 21.7956 35.7098 22.2464C37.2303 20.779 39.1437 19.7844 41.2182 19.3828H41.4386C41.8794 19.3828 42.0998 19.6032 42.3194 20.044V22.9076C42.3952 23.9553 42.245 25.007 41.8786 25.9916C43.5467 27.7917 44.4884 30.1462 44.5218 32.6004C44.5218 37.4474 40.7766 40.3102 35.7106 41.4116C36.4123 42.0545 36.9711 42.8378 37.3507 43.7108C37.7302 44.5836 37.9221 45.5265 37.9138 46.4782V52.2054C37.9212 52.3881 37.9703 52.5666 38.0574 52.7273C38.1443 52.8881 38.2669 53.0269 38.4155 53.133C38.5643 53.2393 38.7353 53.3101 38.9155 53.3402C39.0958 53.3704 39.2806 53.3589 39.4558 53.3066C44.4103 51.3181 48.4782 47.6044 50.9086 42.8509C53.3391 38.0974 53.9679 32.6253 52.6791 27.4445C51.3904 22.2637 48.271 17.724 43.8967 14.6632C39.5224 11.6025 34.1887 10.2275 28.8799 10.792Z" fill="#FFFFFF"/>
</svg>
