<svg width="64" height="64" viewBox="0 0 64 64" fill="none" xmlns="http://www.w3.org/2000/svg">
<path d="M48.2543 10.668H15.7458C14.399 10.6686 13.1075 11.2039 12.1551 12.1563C11.2027 13.1087 10.6674 14.4002 10.6667 15.747V48.2556C10.6674 49.6024 11.2027 50.894 12.1551 51.8462C13.1075 52.7986 14.399 53.334 15.7458 53.3346H48.2543C49.6012 53.334 50.8927 52.7986 51.845 51.8462C52.7974 50.894 53.3327 49.6024 53.3334 48.2556V15.747C53.3327 14.4002 52.7974 13.1087 51.845 12.1563C50.8927 11.2039 49.6012 10.6686 48.2543 10.668ZM23.8734 26.9222V46.2241H17.7781V26.9222H23.8734ZM17.7781 21.3042C17.7781 19.882 18.9973 18.7962 20.8257 18.7962C22.6542 18.7962 23.8022 19.8837 23.8734 21.3042C23.8734 22.7266 22.7358 23.8746 20.8257 23.8746C18.9998 23.8746 17.7781 22.7225 17.7781 21.3042ZM46.2229 46.2225H40.1275V36.065C40.1275 34.0336 39.1114 32.0013 36.5678 31.9609H36.487C34.0283 31.9609 33.013 34.0538 33.013 36.065V46.2241H26.921V26.9222H33.0162V29.5233C33.7497 28.6832 34.659 28.0148 35.6795 27.5652C36.7002 27.1157 37.8073 26.8962 38.9222 26.9222C42.9552 26.9222 46.2261 29.6956 46.2261 35.3134L46.2229 46.2225Z" fill="#FFFFFF"/>
</svg>
