<svg width="1920" height="1080" viewBox="0 0 1920 1080" fill="none" xmlns="http://www.w3.org/2000/svg">
<rect width="1920" height="1080" fill="black"/>
<mask id="mask0_677_683" style="mask-type:alpha" maskUnits="userSpaceOnUse" x="0" y="0" width="1921" height="1106">
<line x1="0.499999" y1="2.18557e-08" x2="0.499952" y2="1076" stroke="#C0C0C0" stroke-width="0.999999"/>
<line x1="48.5" y1="2.18557e-08" x2="48.5" y2="1076" stroke="#C0C0C0" stroke-width="0.999999"/>
<line x1="96.5" y1="2.18557e-08" x2="96.5" y2="1076" stroke="#C0C0C0" stroke-width="0.999999"/>
<line x1="144.5" y1="2.18557e-08" x2="144.5" y2="1076" stroke="#C0C0C0" stroke-width="0.999999"/>
<line x1="192.5" y1="2.18557e-08" x2="192.5" y2="1076" stroke="#C0C0C0" stroke-width="0.999999"/>
<line x1="240.5" y1="2.18557e-08" x2="240.5" y2="1076" stroke="#C0C0C0" stroke-width="0.999999"/>
<line x1="288.5" y1="2.18557e-08" x2="288.5" y2="1076" stroke="#C0C0C0" stroke-width="0.999999"/>
<line x1="336.5" y1="2.18557e-08" x2="336.5" y2="1076" stroke="#C0C0C0" stroke-width="0.999999"/>
<line x1="384.5" y1="2.18557e-08" x2="384.5" y2="1076" stroke="#C0C0C0" stroke-width="0.999999"/>
<line x1="432.5" y1="2.18557e-08" x2="432.5" y2="1076" stroke="#C0C0C0" stroke-width="0.999999"/>
<line x1="480.5" y1="2.18557e-08" x2="480.5" y2="1076" stroke="#C0C0C0" stroke-width="0.999999"/>
<line x1="528.5" y1="2.18557e-08" x2="528.5" y2="1076" stroke="#C0C0C0" stroke-width="0.999999"/>
<line x1="576.5" y1="2.18557e-08" x2="576.5" y2="1076" stroke="#C0C0C0" stroke-width="0.999999"/>
<line x1="624.5" y1="2.18557e-08" x2="624.5" y2="1076" stroke="#C0C0C0" stroke-width="0.999999"/>
<line x1="672.5" y1="2.18557e-08" x2="672.5" y2="1076" stroke="#C0C0C0" stroke-width="0.999999"/>
<line x1="720.5" y1="2.18557e-08" x2="720.5" y2="1076" stroke="#C0C0C0" stroke-width="0.999999"/>
<line x1="768.5" y1="2.18557e-08" x2="768.5" y2="1076" stroke="#C0C0C0" stroke-width="0.999999"/>
<line x1="816.5" y1="2.18557e-08" x2="816.5" y2="1076" stroke="#C0C0C0" stroke-width="0.999999"/>
<line x1="864.5" y1="2.18557e-08" x2="864.5" y2="1076" stroke="#C0C0C0" stroke-width="0.999999"/>
<line x1="912.5" y1="2.18557e-08" x2="912.5" y2="1076" stroke="#C0C0C0" stroke-width="0.999999"/>
<line x1="960.5" y1="2.18557e-08" x2="960.5" y2="1076" stroke="#C0C0C0" stroke-width="0.999999"/>
<line x1="1008.5" y1="2.18557e-08" x2="1008.5" y2="1076" stroke="#C0C0C0" stroke-width="0.999999"/>
<line x1="1056.5" y1="2.18557e-08" x2="1056.5" y2="1076" stroke="#C0C0C0" stroke-width="0.999999"/>
<line x1="1104.5" y1="2.18557e-08" x2="1104.5" y2="1076" stroke="#C0C0C0" stroke-width="0.999999"/>
<line x1="1152.5" y1="2.18557e-08" x2="1152.5" y2="1076" stroke="#C0C0C0" stroke-width="0.999999"/>
<line x1="1200.5" y1="2.18557e-08" x2="1200.5" y2="1076" stroke="#C0C0C0" stroke-width="0.999999"/>
<line x1="1248.5" y1="2.18557e-08" x2="1248.5" y2="1076" stroke="#C0C0C0" stroke-width="0.999999"/>
<line x1="1296.5" y1="2.18557e-08" x2="1296.5" y2="1076" stroke="#C0C0C0" stroke-width="0.999999"/>
<line x1="1344.5" y1="2.18557e-08" x2="1344.5" y2="1076" stroke="#C0C0C0" stroke-width="0.999999"/>
<line x1="1392.5" y1="2.18557e-08" x2="1392.5" y2="1076" stroke="#C0C0C0" stroke-width="0.999999"/>
<line x1="1440.5" y1="2.18557e-08" x2="1440.5" y2="1076" stroke="#C0C0C0" stroke-width="0.999999"/>
<line x1="1488.5" y1="2.18557e-08" x2="1488.5" y2="1076" stroke="#C0C0C0" stroke-width="0.999999"/>
<line x1="1536.5" y1="2.18557e-08" x2="1536.5" y2="1076" stroke="#C0C0C0" stroke-width="0.999999"/>
<line x1="1584.5" y1="2.18557e-08" x2="1584.5" y2="1076" stroke="#C0C0C0" stroke-width="0.999999"/>
<line x1="1632.5" y1="2.18557e-08" x2="1632.5" y2="1076" stroke="#C0C0C0" stroke-width="0.999999"/>
<line x1="1680.5" y1="2.18557e-08" x2="1680.5" y2="1076" stroke="#C0C0C0" stroke-width="0.999999"/>
<line x1="1728.5" y1="2.18557e-08" x2="1728.5" y2="1076" stroke="#C0C0C0" stroke-width="0.999999"/>
<line x1="1776.5" y1="2.18557e-08" x2="1776.5" y2="1076" stroke="#C0C0C0" stroke-width="0.999999"/>
<line x1="1824.5" y1="2.18557e-08" x2="1824.5" y2="1076" stroke="#C0C0C0" stroke-width="0.999999"/>
<line x1="1872.5" y1="2.18557e-08" x2="1872.5" y2="1076" stroke="#C0C0C0" stroke-width="0.999999"/>
<line x1="1920" y1="0.499999" x2="-2.18556e-08" y2="0.499916" stroke="#C0C0C0" stroke-width="0.999999"/>
<line x1="1920" y1="48.5" x2="0.000122048" y2="48.4999" stroke="#C0C0C0" stroke-width="0.999999"/>
<line x1="1920" y1="96.5" x2="-2.18556e-08" y2="96.4999" stroke="#C0C0C0" stroke-width="0.999999"/>
<line x1="1920" y1="144.5" x2="-2.18556e-08" y2="144.5" stroke="#C0C0C0" stroke-width="0.999999"/>
<line x1="1920" y1="192.5" x2="-2.18556e-08" y2="192.5" stroke="#C0C0C0" stroke-width="0.999999"/>
<line x1="1920" y1="240.501" x2="0.000122048" y2="240.501" stroke="#C0C0C0" stroke-width="0.999999"/>
<line x1="1920" y1="288.5" x2="0.000122048" y2="288.5" stroke="#C0C0C0" stroke-width="0.999999"/>
<line x1="1920" y1="336.5" x2="0.000122048" y2="336.5" stroke="#C0C0C0" stroke-width="0.999999"/>
<line x1="1920" y1="384.5" x2="0.000122048" y2="384.5" stroke="#C0C0C0" stroke-width="0.999999"/>
<line x1="1920" y1="432.5" x2="0.000122048" y2="432.5" stroke="#C0C0C0" stroke-width="0.999999"/>
<line x1="1920" y1="480.5" x2="-2.18556e-08" y2="480.5" stroke="#C0C0C0" stroke-width="0.999999"/>
<line x1="1920" y1="528.5" x2="-2.18556e-08" y2="528.5" stroke="#C0C0C0" stroke-width="0.999999"/>
<line x1="1920" y1="576.5" x2="-2.18556e-08" y2="576.5" stroke="#C0C0C0" stroke-width="0.999999"/>
<line x1="1920" y1="624.501" x2="-2.18556e-08" y2="624.501" stroke="#C0C0C0" stroke-width="0.999999"/>
<line x1="1920" y1="672.501" x2="0.000122048" y2="672.501" stroke="#C0C0C0" stroke-width="0.999999"/>
<line x1="1920" y1="720.501" x2="0.000122048" y2="720.501" stroke="#C0C0C0" stroke-width="0.999999"/>
<line x1="1920" y1="768.501" x2="0.000122048" y2="768.501" stroke="#C0C0C0" stroke-width="0.999999"/>
<line x1="1920" y1="816.501" x2="0.000122048" y2="816.501" stroke="#C0C0C0" stroke-width="0.999999"/>
<line x1="1920" y1="864.501" x2="-2.18556e-08" y2="864.501" stroke="#C0C0C0" stroke-width="0.999999"/>
<line x1="1920" y1="912.501" x2="-2.18556e-08" y2="912.501" stroke="#C0C0C0" stroke-width="0.999999"/>
<line x1="1920" y1="960.501" x2="-2.18556e-08" y2="960.501" stroke="#C0C0C0" stroke-width="0.999999"/>
<line x1="1920" y1="1008.5" x2="-2.18556e-08" y2="1008.5" stroke="#C0C0C0" stroke-width="0.999999"/>
<line x1="1920" y1="1056.5" x2="-2.18556e-08" y2="1056.5" stroke="#C0C0C0" stroke-width="0.999999"/>
</mask>
<g mask="url(#mask0_677_683)">
<rect width="1920" height="1080" fill="url(#paint0_radial_677_683)"/>
</g>
<defs>
<radialGradient id="paint0_radial_677_683" cx="0" cy="0" r="1" gradientUnits="userSpaceOnUse" gradientTransform="translate(959.999 540) rotate(89.9999) scale(540 540)">
<stop stop-color="#616161"/>
<stop offset="1"/>
</radialGradient>
</defs>
</svg>
